<?xml version="1.0" encoding="UTF-8" standalone="no"?>
<svg
   width="179"
   height="40"
   viewBox="0 0 179 40"
   version="1.1"
   id="svg8"
   sodipodi:docname="logo.svg"
   inkscape:version="1.4.2 (ebf0e940d0, 2025-05-08)"
   xmlns:inkscape="http://www.inkscape.org/namespaces/inkscape"
   xmlns:sodipodi="http://sodipodi.sourceforge.net/DTD/sodipodi-0.dtd"
   xmlns:xlink="http://www.w3.org/1999/xlink"
   xmlns="http://www.w3.org/2000/svg"
   xmlns:svg="http://www.w3.org/2000/svg">
  <sodipodi:namedview
     id="namedview8"
     pagecolor="#ffffff"
     bordercolor="#000000"
     borderopacity="0.25"
     inkscape:showpageshadow="2"
     inkscape:pageopacity="0.0"
     inkscape:pagecheckerboard="0"
     inkscape:deskcolor="#d1d1d1"
     inkscape:zoom="4.6590781"
     inkscape:cx="84.458769"
     inkscape:cy="-1.7170779"
     inkscape:window-width="1920"
     inkscape:window-height="1131"
     inkscape:window-x="0"
     inkscape:window-y="0"
     inkscape:window-maximized="1"
     inkscape:current-layer="svg8" />
  <defs
     id="defs6">
    <!-- Gradient definitions -->
    <linearGradient
       id="textGradient"
       x1="0"
       y1="0"
       x2="1"
       y2="0">
      <stop
         offset="0%"
         style="stop-color:#4f46e5;stop-opacity:1"
         id="stop1">
        <animate
           attributeName="stop-color"
           values="#4f46e5;#7c3aed;#2563eb;#4f46e5"
           dur="3s"
           repeatCount="indefinite" />
      </stop>
      <stop
         offset="50%"
         style="stop-color:#7c3aed;stop-opacity:1"
         id="stop2">
        <animate
           attributeName="stop-color"
           values="#7c3aed;#2563eb;#4f46e5;#7c3aed"
           dur="3s"
           repeatCount="indefinite" />
      </stop>
      <stop
         offset="100%"
         style="stop-color:#2563eb;stop-opacity:1"
         id="stop3">
        <animate
           attributeName="stop-color"
           values="#2563eb;#4f46e5;#7c3aed;#2563eb"
           dur="3s"
           repeatCount="indefinite" />
      </stop>
    </linearGradient>
    <!-- Wave gradient for decorative element -->
    <linearGradient
       id="waveGradient"
       x1="0"
       y1="116.1895"
       x2="77.459663"
       y2="116.1895"
       gradientTransform="matrix(2.9613498,0,0,0.43553792,-13.951258,-47.473244)"
       gradientUnits="userSpaceOnUse">
      <stop
         offset="0%"
         style="stop-color:#4f46e5;stop-opacity:0.8"
         id="stop4" />
      <stop
         offset="0.4092375"
         style="stop-color:#7c3aed;stop-opacity:0.6"
         id="stop5" />
      <stop
         offset="100%"
         style="stop-color:#2563eb;stop-opacity:0.4"
         id="stop6" />
    </linearGradient>
    <linearGradient
       inkscape:collect="always"
       xlink:href="#textGradient"
       id="linearGradient8"
       x1="77.329346"
       y1="32.643177"
       x2="117.28959"
       y2="32.643177"
       gradientTransform="matrix(1.8124239,0,0,0.5501304,-42.446071,-8.7551493)"
       gradientUnits="userSpaceOnUse" />
    <linearGradient
       inkscape:collect="always"
       xlink:href="#textGradient"
       id="linearGradient9"
       x1="10.40456"
       y1="34.549297"
       x2="54.737728"
       y2="34.549297"
       gradientTransform="matrix(1.9539051,0,0,0.5102958,0.63225164,-8.7391504)"
       gradientUnits="userSpaceOnUse" />
  </defs>
  <!-- Animated wave background element -->
  <path
     d="M 15.88297,15.85854 C 11.90592,-1.8732131 223.43825,-6.4792089 146.23412,32.082946 134.68428,37.851892 22.11546,43.646214 15.88297,15.85854 Z"
     fill="url(#waveGradient)"
     opacity="0.3"
     id="path6"
     style="fill:url(#waveGradient);stroke-width:1.13568"
     sodipodi:nodetypes="sss">
    <animateTransform
       attributeName="transform"
       type="translate"
       values="0,0;10,0;0,0"
       dur="4s"
       repeatCount="indefinite" />
  </path>
  <!-- Main text -->
  <path
     style="font-size:31.9531px;font-family:WaveContempo;-inkscape-font-specification:WaveContempo;fill:url(#linearGradient9);stroke-width:0.998534"
     d="m 37.474163,8.8669791 q 0.319531,0 0.51125,0.2236717 0.223671,0.1917186 0.223671,0.4792965 v 2.3325767 q 0,0.319531 -0.223671,0.543202 -0.191719,0.191719 -0.479297,0.159766 -2.875779,-0.319531 -5.591792,-0.479297 -0.319531,0 -0.543203,0.223672 -0.223672,0.191719 -0.255625,0.51125 -0.319531,4.665152 -0.287578,7.093588 0.03195,2.716013 0.191719,6.39062 0.159765,3.642653 0.319531,4.026091 0.09586,0.287577 -0.03195,0.575155 -0.09586,0.255625 -0.383437,0.255625 h -2.843826 q -0.287578,0 -0.51125,-0.191718 -0.191719,-0.223672 -0.127812,-0.51125 0.127812,-0.479297 0.351484,-4.761012 0.255625,-4.313669 0.255625,-5.623746 0,-1.981092 -0.287578,-7.253353 -0.03195,-0.319531 -0.255625,-0.51125 -0.223672,-0.223672 -0.543203,-0.191719 -3.834372,0.159766 -5.527886,0.415391 -0.830781,0.127812 -0.830781,-0.383438 V 9.5379942 q 0,-0.2875779 0.191719,-0.4473434 0.223672,-0.1917186 0.479296,-0.1917186 0.479297,0 7.892416,0 7.445072,-0.031953 8.307806,-0.031953 z M 51.885005,26.473137 q 0.575156,0 0.766875,1.278124 0.223671,1.278124 0.06391,2.076952 -0.127813,0.607109 -0.639062,0.990546 -0.479297,0.383437 -1.246171,0.383437 -1.757421,-0.06391 -5.272262,-0.03195 -2.460388,0 -4.185856,-1.725467 -1.693514,-1.757421 -1.661561,-4.185857 0.09586,-4.601246 0.09586,-5.144449 0,-1.214217 -0.191718,-5.304214 -0.191719,-4.089997 -0.319531,-5.2083556 -0.03195,-0.2875779 0.159765,-0.5112496 0.223672,-0.2236717 0.543203,-0.2236717 0.830781,0.031953 2.044998,0.031953 1.246171,0 4.473434,0.031953 3.259217,0 4.313669,-0.063906 0.766874,0 1.246171,0.3834372 0.511249,0.3834372 0.639062,0.9905457 0.159765,0.798828 -0.06391,2.108905 -0.191719,1.278124 -0.766875,1.278124 -0.351484,0 -1.118358,-0.351484 -0.766875,-0.351484 -1.629608,-0.734921 -0.862734,-0.415391 -2.332577,-0.734922 -1.437889,-0.319531 -3.003591,-0.319531 -0.351484,0.03195 -0.639062,0.287578 -0.255625,0.255625 -0.255625,0.607109 -0.127812,2.204764 -0.287578,6.358667 0,0.479297 0.351484,0.766874 0.383437,0.287578 0.830781,0.191719 1.821327,-0.479296 3.962184,-0.543203 0.543203,-0.03195 0.92664,0.383438 0.41539,0.41539 0.351484,0.958593 l 0.06391,1.565701 q -1.086405,-0.159765 -2.620154,-0.159765 -1.533749,-0.03195 -3.067497,0.159765 -0.351484,0.06391 -0.575156,0.351485 -0.223672,0.255624 -0.223672,0.607108 0,0.734922 0,3.323123 0,0.958593 0.702968,1.629608 0.702969,0.639062 1.693515,0.543203 1.597655,-0.159766 3.09945,-0.671015 1.501796,-0.51125 2.428436,-0.92664 0.958593,-0.447344 1.34203,-0.447344 z m 17.478342,-0.159765 0.958593,2.652107 q 0.159765,0.479297 -0.255625,0.702968 -2.556248,1.565702 -5.815464,1.565702 -2.492342,0 -4.601247,-0.92664 -2.076951,-0.958593 -3.450935,-2.524295 -1.373983,-1.565702 -2.140857,-3.578747 -0.734922,-2.013045 -0.734922,-4.153903 0,-2.108904 0.798828,-4.153903 0.83078,-2.044998 2.236717,-3.6107 1.437889,-1.597655 3.482888,-2.5882013 2.076951,-0.9905461 4.409528,-0.9905461 2.588201,0 4.697105,0.8627337 0.319531,0.1597655 0.255625,0.5112497 l -0.639062,2.907732 q -0.03195,0.223672 -0.255625,0.319531 -0.191718,0.06391 -0.383437,-0.03195 -1.629608,-0.766874 -3.674606,-0.766874 -1.821327,0 -3.323123,0.639062 -1.469842,0.639062 -2.396482,1.693514 -0.92664,1.054452 -1.43789,2.364529 -0.511249,1.278124 -0.511249,2.620154 0,3.19531 2.26867,5.272262 2.26867,2.076951 5.400074,2.076951 2.364529,0 4.281715,-1.182264 0.223672,-0.159766 0.479297,-0.03195 0.287577,0.09586 0.351484,0.351484 z m 19.906772,4.058044 q 0.127812,0.287577 0,0.575155 -0.09586,0.255625 -0.383438,0.255625 h -2.843826 q -0.287577,0 -0.511249,-0.191718 -0.191719,-0.223672 -0.127813,-0.479297 0.191719,-0.734921 0.575156,-10.959913 0,-0.223672 -0.191718,-0.383438 -0.191719,-0.159765 -0.415391,-0.09586 -2.013045,0.543203 -5.016636,2.076952 -2.971639,1.501795 -4.665153,3.131403 -0.223672,0.191719 -0.191719,0.51125 0.191719,5.176402 0.351484,5.55984 0.09586,0.287577 -0.03195,0.575155 -0.09586,0.255625 -0.351484,0.255625 H 72.5906 q -0.287578,0 -0.511249,-0.191718 -0.191719,-0.223672 -0.127813,-0.51125 0.159766,-0.479297 0.383437,-4.761012 0.223672,-4.313669 0.223672,-5.623746 0,-1.214217 -0.191718,-5.304214 -0.191719,-4.089997 -0.319531,-5.2083556 -0.03195,-0.2875779 0.191718,-0.4792965 0.223672,-0.2236717 0.51125,-0.2236717 h 2.428435 q 0.287578,0 0.51125,0.2236717 0.223672,0.1917186 0.191719,0.4792965 -0.159766,1.4378896 -0.383438,4.5692936 -0.191718,3.09945 -0.159765,4.984683 0,0.287578 0.06391,2.300624 0,0.159765 0.127812,0.223671 0.127813,0.03195 0.255625,-0.06391 1.885233,-1.725467 4.729059,-3.099451 2.843826,-1.405936 4.888824,-1.853279 0.543203,-0.09586 0.51125,-0.607109 -0.159765,-4.249763 -0.41539,-6.4545266 -0.03195,-0.2875779 0.159765,-0.5112496 0.223672,-0.2236717 0.51125,-0.2236717 h 2.428435 q 0.319531,0 0.51125,0.2236717 0.223672,0.2236717 0.191719,0.5112496 -0.159766,1.3420306 -0.351484,4.8888246 -0.191719,3.546794 -0.159766,5.46398 0.03195,2.716013 0.159766,6.39062 0.159765,3.642653 0.319531,4.026091 z"
     id="text6"
     transform="scale(0.99853369,1.0014685)"
     aria-label="TECH" />
  <path
     style="font-weight:bold;font-size:31.9531px;font-family:WaveContempo;-inkscape-font-specification:'WaveContempo Bold';fill:url(#linearGradient8);stroke-width:0.998534"
     d="m 114.21989,8.8509821 q 0.31953,0 0.51125,0.2236717 0.22367,0.1917186 0.22367,0.4792965 v 2.3325767 q 0,0.319531 -0.22367,0.543202 -0.19172,0.191719 -0.47929,0.159766 -2.87578,-0.319531 -5.5918,-0.479297 -0.31953,0 -0.5432,0.223672 -0.22367,0.191719 -0.25562,0.51125 -0.31954,4.665152 -0.28758,7.093588 0.0319,2.716013 0.19172,6.39062 0.15976,3.642653 0.31953,4.026091 0.0959,0.287577 -0.032,0.575155 -0.0959,0.255625 -0.38343,0.255625 h -2.84383 q -0.28758,0 -0.51125,-0.191718 -0.19172,-0.223672 -0.12781,-0.51125 0.12781,-0.479297 0.35148,-4.761012 0.25563,-4.313668 0.25563,-5.623746 0,-1.981092 -0.28758,-7.253353 -0.032,-0.319531 -0.25562,-0.51125 -0.22368,-0.223672 -0.54321,-0.191719 -3.834369,0.159766 -5.527884,0.415391 -0.83078,0.127812 -0.83078,-0.383437 V 9.5219972 q 0,-0.2875779 0.191718,-0.4473434 0.223672,-0.1917186 0.479297,-0.1917186 0.479296,0 7.892419,0 7.44507,-0.031953 8.3078,-0.031953 z m 2.71601,0 h 2.42844 q 0.28757,0 0.51125,0.2236717 0.22367,0.2236717 0.19171,0.5112497 -0.15976,1.3420305 -0.38343,4.8888245 -0.19172,3.546794 -0.15977,5.46398 0.0319,2.716013 0.19172,6.39062 0.15977,3.642653 0.31953,4.026091 0.0959,0.287577 -0.0319,0.575155 -0.0959,0.255625 -0.35149,0.255625 h -2.87578 q -0.28757,0 -0.51125,-0.191718 -0.19171,-0.223672 -0.12781,-0.51125 0.15977,-0.479297 0.38344,-4.761012 0.22367,-4.313668 0.22367,-5.623746 0,-1.214217 -0.19172,-5.304214 -0.19172,-4.089997 -0.31953,-5.2083555 -0.0319,-0.287578 0.19172,-0.5112497 0.22367,-0.2236717 0.51125,-0.2236717 z m 7.28528,-0.031953 q 1.46984,-0.063906 2.97164,-0.1278124 1.53375,-0.063906 3.03554,0.2236717 1.5018,0.2556248 2.84383,0.7029683 1.34203,0.4153904 2.49234,1.3100774 1.18226,0.894686 2.01305,2.076951 0.86273,1.182265 1.34203,3.003592 0.47929,1.789373 0.47929,4.02609 0,1.885233 -0.44734,3.482888 -0.41539,1.565702 -1.15031,2.684061 -0.70297,1.086405 -1.75742,1.981092 -1.0225,0.862733 -2.07695,1.405936 -1.05446,0.543203 -2.33258,0.92664 -1.24617,0.351484 -2.30062,0.51125 -1.0225,0.159765 -2.14086,0.223671 -1.08641,0.06391 -1.75742,0.03195 -0.63906,0 -1.21422,-0.06391 -0.0959,0 -0.19172,-0.03195 h -0.73492 q -0.28758,0 -0.51125,-0.191718 -0.19172,-0.223672 -0.12781,-0.51125 0.15976,-0.479297 0.38343,-4.761012 0.22368,-4.313668 0.22368,-5.623746 0,-1.214217 -0.19172,-5.304214 -0.19172,-4.089997 -0.31953,-5.2083555 -0.032,-0.287578 0.19172,-0.5112497 0.22367,-0.2236717 0.51125,-0.2236717 0.70296,-0.031953 0.76687,-0.031953 z m 2.90773,18.117408 q 0.92664,0.159765 1.94914,0.09586 1.05445,-0.09586 2.10891,-0.223672 1.05445,-0.127812 2.01304,-0.639062 0.99055,-0.511249 1.72547,-1.24617 0.76687,-0.734922 1.21422,-1.981093 0.44734,-1.278124 0.44734,-2.907732 0,-8.052181 -9.84156,-7.061635 -0.44734,0.03195 -0.44734,0.447343 -0.28758,4.313669 -0.25562,6.518433 0.032,2.68406 0.15976,6.039136 0.0319,0.383437 0.28758,0.671015 0.25562,0.255625 0.63906,0.287578 z m 26.77668,-0.479297 q 0.57516,0 0.76687,1.278124 0.22368,1.278124 0.0639,2.076952 -0.12781,0.607109 -0.63906,0.990546 -0.4793,0.383437 -1.24617,0.383437 -1.75742,-0.06391 -5.27226,-0.03195 -2.46039,0 -4.18586,-1.725467 -1.69351,-1.757421 -1.66156,-4.185856 0.0959,-4.601247 0.0959,-5.14445 0,-1.214217 -0.19172,-5.304214 -0.19172,-4.089997 -0.31953,-5.2083555 -0.032,-0.287578 0.15976,-0.5112497 0.22368,-0.2236717 0.54321,-0.2236717 0.83078,0.031953 2.04499,0.031953 1.24618,0 4.47344,0.031953 3.25921,0 4.31367,-0.063906 0.76687,0 1.24617,0.3834372 0.51125,0.3834373 0.63906,0.9905457 0.15977,0.798828 -0.0639,2.108905 -0.19171,1.278124 -0.76687,1.278124 -0.35148,0 -1.11836,-0.351484 -0.76687,-0.351484 -1.62961,-0.734921 -0.86273,-0.415391 -2.33257,-0.734922 -1.43789,-0.319531 -3.0036,-0.319531 -0.35148,0.03195 -0.63906,0.287578 -0.25562,0.255625 -0.25562,0.607109 -0.12781,2.204764 -0.28758,6.358667 0,0.479297 0.35148,0.766875 0.38344,0.287577 0.83078,0.191718 1.82133,-0.479296 3.96219,-0.543203 0.5432,-0.03195 0.92664,0.383438 0.41539,0.41539 0.35148,0.958593 l 0.0639,1.565702 q -1.08641,-0.159766 -2.62015,-0.159766 -1.53375,-0.03195 -3.0675,0.159766 -0.35149,0.06391 -0.57516,0.351484 -0.22367,0.255624 -0.22367,0.607109 0,0.734921 0,3.323122 0,0.958593 0.70297,1.629608 0.70297,0.639062 1.69351,0.543203 1.59766,-0.159766 3.09945,-0.671015 1.5018,-0.51125 2.42844,-0.92664 0.95859,-0.447344 1.34203,-0.447344 z"
     id="text7"
     transform="scale(0.99853369,1.0014685)"
     aria-label="TIDE" />
</svg>
