<?xml version="1.0" encoding="UTF-8" standalone="no"?>
<svg
   viewBox="0 0 438 70"
   version="1.1"
   id="svg19"
   width="438"
   height="70"
   xmlns:xlink="http://www.w3.org/1999/xlink"
   xmlns="http://www.w3.org/2000/svg"
   xmlns:svg="http://www.w3.org/2000/svg">
  <defs
     id="defs8">
    <!-- Gradient definitions -->
    <linearGradient
       id="purpleGradient"
       x1="0"
       y1="0"
       x2="1"
       y2="1">
      <stop
         offset="0%"
         style="stop-color:#8B5CF6;stop-opacity:1"
         id="stop1" />
      <stop
         offset="50%"
         style="stop-color:#A855F7;stop-opacity:1"
         id="stop2" />
      <stop
         offset="100%"
         style="stop-color:#C084FC;stop-opacity:1"
         id="stop3" />
    </linearGradient>
    <linearGradient
       id="neonGlow"
       x1="130.82986"
       y1="51.198914"
       x2="208.15276"
       y2="128.5218"
       gradientTransform="matrix(1.6397642,0,0,0.60984377,-50,0)"
       gradientUnits="userSpaceOnUse">
      <stop
         offset="0%"
         style="stop-color:#9333EA;stop-opacity:1"
         id="stop4" />
      <stop
         offset="100%"
         style="stop-color:#EC4899;stop-opacity:1"
         id="stop5" />
    </linearGradient>
    <!-- Glitch effect filter -->
    <!-- Neon glow effect -->
    <filter
       id="neon"
       x="-0.087124225"
       y="-0.24131971"
       width="1.1742485"
       height="1.4826394">
      <feGaussianBlur
         stdDeviation="3"
         result="coloredBlur"
         id="feGaussianBlur6" />
      <feMerge
         id="feMerge8">
        <feMergeNode
           in="coloredBlur"
           id="feMergeNode7" />
        <feMergeNode
           in="SourceGraphic"
           id="feMergeNode8" />
      </feMerge>
    </filter>
    <linearGradient
       xlink:href="#purpleGradient"
       id="linearGradient19"
       x1="5.0709257"
       y1="946.57275"
       x2="28.735245"
       y2="970.23706"
       gradientTransform="matrix(10.542308,0,0,0.09357707,6.6126439,-6.4331306)"
       gradientUnits="userSpaceOnUse" />
    <linearGradient
       xlink:href="#purpleGradient"
       id="linearGradient20"
       x1="36.661537"
       y1="49.865021"
       x2="102.18011"
       y2="115.38359"
       gradientTransform="scale(1.4811164,0.6751664)"
       gradientUnits="userSpaceOnUse" />
  </defs>
  <!-- Decorative circuit-like elements -->
  <g
     stroke="#8b5cf6"
     stroke-width="2"
     fill="none"
     opacity="0.6"
     id="g11"
     transform="matrix(1.1072188,0,0,1.1072188,-3.1706717,-11.538019)">
    <!-- Top left circuit -->
    <g
       id="g21"
       transform="translate(-0.86447822,1.1526376)">
      <path
         d="M 20,20 H 40 V 30 H 60"
         id="path8" />
      <circle
         cx="40"
         cy="20"
         r="2"
         fill="#8b5cf6"
         id="circle8" />
      <circle
         cx="60"
         cy="30"
         r="2"
         fill="#8b5cf6"
         id="circle9" />
    </g>
    <!-- Bottom right circuit -->
    <g
       id="g20"
       transform="translate(50.427896,-25.934346)">
      <path
         d="M 333,90 H 313 V 80 h -20"
         id="path9" />
      <circle
         cx="-313"
         cy="90"
         r="2"
         fill="#8b5cf6"
         id="circle10"
         transform="scale(-1,1)" />
      <circle
         cx="-293"
         cy="80"
         r="2"
         fill="#8b5cf6"
         id="circle11"
         transform="scale(-1,1)" />
    </g>
  </g>
  <!-- Binary code background -->
  <!-- Main text: CSE -->
  <!-- Hex prefix and number: 0x23 -->
  <!-- Subtle underline with glitch effect -->
  <g
     id="g22"
     transform="translate(34.457995,-22.333886)">
    <path
       d="m 81.9375,42.8125 q 0.445312,-0.609375 0.960937,-0.914063 0.539063,-0.304687 1.148438,-0.304687 1.054687,0 1.710937,0.726562 0.679688,0.726563 0.679688,2.460938 v 4.078125 q 0,1.734375 -0.679688,2.484375 -0.65625,0.726562 -1.710937,0.726562 -0.960938,0 -1.546875,-0.539062 -0.585938,-0.539063 -0.867188,-2.015625 -0.164062,-0.984375 -0.65625,-1.523438 -0.960937,-1.054687 -2.695312,-1.6875 -1.710938,-0.632812 -3.445313,-0.632812 -2.15625,0 -3.960937,0.9375 -1.804688,0.9375 -3.1875,3.046875 -1.382813,2.109375 -1.382813,5.015625 v 3.117187 q 0,3.46875 2.507813,5.789063 2.53125,2.320312 7.007812,2.320312 2.671875,0 4.523438,-0.726562 1.078125,-0.421875 2.296875,-1.664063 0.75,-0.75 1.171875,-0.960937 0.421875,-0.234375 0.960937,-0.234375 0.960938,0 1.6875,0.726562 0.726563,0.726563 0.726563,1.710938 0,0.984375 -0.984375,2.109375 Q 84.773437,68.5 82.523437,69.4375 79.5,70.703125 75.84375,70.703125 q -4.265625,0 -7.6875,-1.757813 -2.765625,-1.40625 -4.710938,-4.429687 Q 61.5,61.46875 61.5,57.882812 V 54.625 q 0,-3.75 1.734375,-6.984375 1.757812,-3.257813 4.851562,-5.015625 3.09375,-1.757813 6.5625,-1.757813 2.085938,0 3.890625,0.492188 1.828125,0.46875 3.398438,1.453125 z m 14.25,25.96875 q -0.632813,0.75 -1.03125,0.960937 -0.375,0.210938 -0.9375,0.210938 -1.101563,0 -1.78125,-0.726563 -0.65625,-0.75 -0.65625,-2.460937 V 63.53125 q 0,-1.734375 0.65625,-2.460938 0.679687,-0.75 1.78125,-0.75 0.84375,0 1.40625,0.445313 0.585937,0.445312 0.890625,1.5 0.304687,1.03125 0.632812,1.40625 0.679688,0.726562 2.414063,1.476562 1.73438,0.75 3.79688,0.75 3.21093,0 5.27343,-1.5 1.3125,-0.914062 1.3125,-2.25 0,-0.890625 -0.63281,-1.664062 -0.63281,-0.796875 -2.0625,-1.3125 -0.9375,-0.351563 -4.19531,-0.960938 -3.937503,-0.726562 -5.953128,-1.757812 -2.015625,-1.03125 -3.1875,-2.90625 -1.171875,-1.875 -1.171875,-4.054688 0,-3.445312 2.882813,-6.023437 2.882812,-2.601563 7.5,-2.601563 1.85156,0 3.42188,0.421875 1.59375,0.398438 2.88281,1.242188 0.9375,-0.914063 1.875,-0.914063 1.05469,0 1.71094,0.75 0.67968,0.726563 0.67968,2.4375 v 3.609375 q 0,1.734375 -0.67968,2.484375 -0.65625,0.726563 -1.71094,0.726563 -0.89063,0 -1.54688,-0.539063 -0.51562,-0.398437 -0.77343,-1.59375 -0.25782,-1.195312 -0.65625,-1.710937 -0.67969,-0.890625 -2.03907,-1.5 -1.35937,-0.609375 -3.14062,-0.609375 -2.60156,0 -4.125003,1.21875 -1.5,1.195312 -1.5,2.507812 0,0.890625 0.609375,1.734375 0.632813,0.820313 1.828125,1.289063 0.796873,0.328125 4.476563,1.054687 3.70313,0.726563 5.67188,1.59375 1.99218,0.867188 3.30468,2.71875 1.3125,1.851563 1.3125,4.40625 0,3.5625 -2.50781,5.695313 -3.32812,2.8125 -8.48437,2.8125 -1.99219,0 -3.89063,-0.492188 -1.875,-0.46875 -3.65625,-1.429687 z m 30.89063,-10.640625 v 7.054687 h 12.25781 V 62.59375 q 0,-1.734375 0.65625,-2.460938 0.67968,-0.75 1.75781,-0.75 1.05469,0 1.71094,0.75 0.67968,0.726563 0.67968,2.460938 V 70 h -22.61718 q -1.73438,0 -2.48438,-0.65625 -0.72656,-0.679688 -0.72656,-1.757813 0,-1.054687 0.75,-1.710937 0.75,-0.679688 2.46094,-0.679688 h 0.75 V 46.398437 h -0.75 q -1.73438,0 -2.48438,-0.65625 -0.72656,-0.679687 -0.72656,-1.757812 0,-1.078125 0.72656,-1.734375 0.75,-0.679688 2.48438,-0.679688 l 21.5625,0.02344 v 7.3125 q 0,1.710937 -0.65625,2.460937 -0.65625,0.726563 -1.73438,0.726563 -1.07812,0 -1.75781,-0.726563 -0.65625,-0.726562 -0.65625,-2.460937 v -2.507813 h -11.20312 v 6.9375 h 4.21874 q 0,-1.875 0.35157,-2.414062 0.72656,-1.148438 2.0625,-1.148438 1.05468,0 1.71093,0.75 0.67969,0.726563 0.67969,2.460938 v 5.53125 q 0,1.570312 -0.375,2.109375 -0.75,1.101562 -2.01562,1.101562 -1.33594,0 -2.0625,-1.148437 -0.35157,-0.539063 -0.35157,-2.4375 z"
       id="text13"
       style="font-weight:bold;font-size:48px;font-family:'Courier New', monospace;fill:url(#linearGradient20);filter:url(#neon)"
       transform="matrix(1.1072188,0,0,1.1072188,-6.361227,-6.4331306)"
       aria-label="CSE" />
    <path
       d="M 194.89062,52.164062 V 57.4375 q 0,4.6875 -2.71875,8.976562 -2.69531,4.289063 -7.73437,4.289063 -2.90625,0 -4.92188,-1.265625 -1.99218,-1.289063 -3.79687,-4.710938 Q 173.9375,61.28125 173.9375,57.4375 v -5.273438 q 0,-4.664062 2.69531,-8.953125 2.69531,-4.3125 7.73438,-4.3125 2.88281,0 4.875,1.265625 2.01562,1.265625 3.82031,4.710938 1.82812,3.421875 1.82812,7.289062 z m -4.82812,0 q 0,-3.914062 -2.17969,-6.84375 -1.24219,-1.617187 -3.49219,-1.617187 -2.17968,0 -3.5625,1.78125 -2.08593,2.695312 -2.08593,6.679687 V 57.4375 q 0,3.9375 2.20312,6.84375 1.21875,1.617187 3.49219,1.617187 2.15625,0 3.53906,-1.78125 2.08594,-2.695312 2.08594,-6.679687 z m 26.74219,6.773438 7.28906,6.257812 q 1.3125,0.07031 1.96875,0.75 0.65625,0.65625 0.65625,1.664063 0,1.054687 -0.75,1.734375 Q 225.24219,70 223.50781,70 h -5.46094 q -1.73437,0 -2.48437,-0.65625 -0.72656,-0.679688 -0.72656,-1.78125 0,-0.84375 0.51562,-1.476563 0.53906,-0.65625 1.45313,-0.890625 l -3.58594,-3.09375 -3.65625,3.09375 q 1.10156,0.28125 1.57031,0.867188 0.49219,0.585937 0.49219,1.5 0,1.101562 -0.72656,1.78125 Q 210.17187,70 208.4375,70 h -5.41406 q -1.73438,0 -2.48438,-0.65625 -0.72656,-0.679688 -0.72656,-1.757813 0,-0.984375 0.65625,-1.640625 0.65625,-0.679687 1.96875,-0.75 l 7.125,-6.28125 -6.30469,-5.390625 q -1.24219,-0.09375 -1.89844,-0.75 -0.63281,-0.679687 -0.63281,-1.664062 0,-1.054688 0.72656,-1.710938 0.75,-0.679687 2.48438,-0.679687 h 4.5 q 1.73437,0 2.46094,0.679687 0.75,0.65625 0.75,1.6875 0,1.382813 -1.3125,2.25 l 2.90625,2.414063 2.85937,-2.460938 Q 214.8125,52.375 214.8125,51.179687 q 0,-1.125 0.72656,-1.78125 0.75,-0.679687 2.48438,-0.679687 h 4.45312 q 1.73438,0 2.46094,0.679687 0.75,0.65625 0.75,1.734375 0,0.960938 -0.65625,1.640625 -0.63281,0.65625 -1.89844,0.75 z m 20.71875,6.257812 h 10.52343 q 0.86719,-0.703125 1.64063,-0.703125 1.10156,0 1.73437,0.726563 0.65625,0.726562 0.65625,2.484375 V 70 H 230.1875 v -5.085938 q 12.98437,-10.710937 15.67969,-13.78125 1.35937,-1.570312 1.35937,-2.976562 0,-1.757813 -1.54687,-3.09375 -1.52344,-1.359375 -4.07813,-1.359375 -2.57812,0 -4.28906,1.5 -0.89063,0.796875 -1.42969,2.367187 -0.32812,0.984375 -0.91406,1.40625 -0.5625,0.421875 -1.40625,0.421875 -0.98438,0 -1.71094,-0.703125 -0.70312,-0.703125 -0.70312,-1.640625 0,-1.40625 1.28906,-3.515625 1.3125,-2.109375 3.79687,-3.375 2.50782,-1.265625 5.4375,-1.265625 4.54688,0 7.45313,2.765625 2.90625,2.742188 2.90625,6.65625 0,1.992188 -0.84375,3.703125 -0.82031,1.6875 -3.98438,4.6875 -2.48437,2.367188 -9.67968,8.484375 z m 40.14843,-11.25 q 2.13282,1.453125 3.1875,3.375 1.05469,1.898438 1.05469,4.265625 0,2.554688 -1.40625,4.734375 -1.38281,2.15625 -4.03125,3.28125 -2.64844,1.101563 -6.9375,1.101563 -5.57812,0 -8.39062,-1.734375 -1.57032,-0.984375 -1.57032,-2.34375 0,-1.03125 0.67969,-1.734375 0.70313,-0.726563 1.6875,-0.726563 0.67969,0 1.40625,0.46875 1.03125,0.703125 1.94531,0.9375 1.40625,0.328125 3.86719,0.328125 4.19531,0 6.07031,-1.078125 1.875,-1.101562 1.875,-3.09375 0,-1.476562 -1.10156,-2.835937 -1.07812,-1.382813 -2.90625,-2.132813 -1.05469,-0.421875 -3.5625,-0.585937 -1.19531,-0.07031 -1.85156,-0.726563 -0.63281,-0.679687 -0.63281,-1.664062 0,-1.03125 0.70312,-1.734375 0.70313,-0.703125 1.78125,-0.703125 2.39063,0 2.55469,-0.02344 0.9375,-0.09375 1.875,-0.609375 0.9375,-0.515625 1.5,-1.40625 0.58594,-0.914062 0.58594,-1.875 0,-1.523437 -1.35938,-2.625 -1.33594,-1.125 -4.03125,-1.125 -3.46875,0 -5.29687,2.015625 -0.53907,0.585938 -0.86719,0.75 -0.49219,0.257813 -1.10156,0.257813 -0.98438,0 -1.6875,-0.703125 -0.70313,-0.703125 -0.70313,-1.734375 0,-1.617188 2.15625,-3.140625 3.14063,-2.226563 7.85156,-2.226563 4.45313,0 7.14844,2.53125 2.69531,2.53125 2.69531,6.09375 0,1.851563 -0.79687,3.46875 -0.79688,1.59375 -2.39063,2.953125 z"
       id="text14"
       style="font-weight:bold;font-size:48px;font-family:'Courier New', monospace;fill:url(#neonGlow);filter:url(#neon)"
       transform="matrix(1.1072188,0,0,1.1072188,-6.361227,-6.4331306)"
       aria-label="0x23" />
    <rect
       x="60.071903"
       y="82.144379"
       width="249.47655"
       height="2.2144377"
       fill="url(#purpleGradient)"
       opacity="0.7"
       id="rect14"
       style="fill:url(#linearGradient19);stroke-width:0.993238">
      <animate
         attributeName="opacity"
         values="0.7;1;0.7"
         dur="2s"
         repeatCount="indefinite" />
    </rect>
  </g>
  <!-- Animated brackets for extra hacker aesthetic -->
  <g
     fill="#a855f7"
     font-family="'Courier New', monospace"
     font-size="24px"
     opacity="0.8"
     id="g16"
     transform="matrix(1.1072188,0,0,1.1072188,-3.1706722,-6.1140751)">
    <!-- Left bracket with left movement animation -->
    <path
       d="m 74.603452,19.624108 v 32.913295 h 4.992054 q 0.734125,0 1.052247,0.269178 0.31812,0.293651 0.31812,0.758598 0,0.464946 -0.31812,0.734124 -0.318122,0.293651 -1.052247,0.293651 H 72.547901 V 17.544086 h 7.047605 q 0.734125,0 1.052247,0.293651 0.31812,0.293651 0.31812,0.758596 0,0.440474 -0.31812,0.734124 -0.318122,0.293651 -1.052247,0.293651 z"
       id="bracketl"
       style="opacity:0.8;stroke-width:2.08818"
       aria-label="[">
      <animateTransform
         attributeName="transform"
         type="translate"
         values="0,0; -8,0; 0,0"
         dur="3s"
         repeatCount="indefinite" />
      <animate
         attributeName="opacity"
         values="0.8;1;0.8"
         dur="3s"
         repeatCount="indefinite" />
    </path>
    
    <!-- Right bracket with right movement animation -->
    <path
       d="M 327.88882,52.025035 V 20.135714 h -4.81305 q -0.71127,0 -1.01949,-0.284514 -0.30823,-0.284515 -0.30823,-0.711285 0,-0.450481 0.30823,-0.734995 0.30822,-0.284514 1.01949,-0.284514 h 6.82835 v 35.896229 h -6.82835 q -0.71127,0 -1.01949,-0.284514 -0.30823,-0.260805 -0.30823,-0.711285 0,-0.426773 0.30823,-0.711288 0.30822,-0.284513 1.01949,-0.284513 z"
       id="bracketr"
       style="opacity:0.8;stroke-width:2.02321"
       aria-label="]">
      <animateTransform
         attributeName="transform"
         type="translate"
         values="0,0; 8,0; 0,0"
         dur="3s"
         repeatCount="indefinite" />
      <animate
         attributeName="opacity"
         values="0.8;1;0.8"
         dur="3s"
         repeatCount="indefinite" />
    </path>
  </g>
  <!-- Corner decorative elements -->
  <g
     stroke="#c084fc"
     stroke-width="1"
     fill="none"
     opacity="0.8"
     id="g19"
     transform="translate(21.695775,-33.500829)">
    <!-- Top left corner -->
    <g
       id="g24"
       transform="translate(-21.376719,32.862718)">
      <path
         d="M 4.7109615,4.6390578 V 21.24734 H 21.319244"
         id="path16"
         style="stroke-width:1.10722" />
      <path
         d="M 4.7109615,4.6390578 H 21.319244 V 21.24734"
         id="path17"
         style="stroke-width:1.10722" />
    </g>
    <g
       id="g23"
       transform="translate(48.496438,-13.081276)">
      <path
         d="m 345.26305,97.712263 v 16.608287 h 16.60828"
         id="path16-9"
         style="stroke-width:1.10722" />
      <path
         d="m 345.26305,97.712263 h 16.60828 v 16.608287"
         id="path17-4"
         style="stroke-width:1.10722" />
    </g>
    <!-- Bottom right corner -->
  </g>
  <!-- Animated cursor -->
</svg>